PathFileType	4	(X/Y/Z)	Patient4_TMGait_0pt6_02_right_42.trc.trc
DataRate	CameraRate	NumFrames	NumMarkers	Units	OrigDataRate	OrigDataStartFrame	OrigNumFrames
85.365853658537	85.365853658537	4	33	mm	85.365853658537	89	       141
Frame#	Time	Sacral			L.Shoulder			Chest			R.Shoulder			Neck			R.ASIS			L.ASIS			R.Thigh.Superior			R.Thigh.Lateral			R.Thigh.Inferior			R.Patella			L.Thigh.Superior			L.Thigh.Lateral			L.Thigh.Inferior			L.Patella			L.Shank.Superior			L.Shank.Lateral			L.Shank.Inferior			R.Shank.Superior			R.Shank.Lateral			R.Shank.Inferior			R.Heel			R.Midfoot.Superior			R.Midfoot.Lateral			R.Toe			L.Heel			L.Midfoot.Lateral			L.Midfoot.Superior			L.Toe			L.Elbow			L.Wrist			R.Elbow			R.Wrist			
		X1	Y1	Z1	X2	Y2	Z2	X3	Y3	Z3	X4	Y4	Z4	X5	Y5	Z5	X6	Y6	Z6	X7	Y7	Z7	X8	Y8	Z8	X9	Y9	Z9	X10	Y10	Z10	X11	Y11	Z11	X12	Y12	Z12	X13	Y13	Z13	X14	Y14	Z14	X15	Y15	Z15	X16	Y16	Z16	X17	Y17	Z17	X18	Y18	Z18	X19	Y19	Z19	X20	Y20	Z20	X21	Y21	Z21	X22	Y22	Z22	X23	Y23	Z23	X24	Y24	Z24	X25	Y25	Z25	X26	Y26	Z26	X27	Y27	Z27	X28	Y28	Z28	X29	Y29	Z29	X30	Y30	Z30	X31	Y31	Z31	X32	Y32	Z32	X33	Y33	Z33	

89	51.760857142857	879.038832021994	1014.360863668084	467.898218772976	1071.877547479554	1424.036744288117	269.121159127755	1175.584574867173	1356.302912851531	429.163101148600	1100.736730438063	1445.410271137179	599.023042720057	1078.940549478652	1491.328616061516	416.357325007587	1101.265806628138	942.782774843992	585.694095407968	1090.554079512120	952.123288843367	311.510219803944	1136.955608734823	736.481837779175	568.496548685626	1052.772229858537	629.823282400358	631.695062133106	1133.215221777520	568.083605626123	559.350253781938	1120.595708556547	459.268270759018	578.613950367609	1153.697618520195	759.978854266800	341.605975593290	1077.437062827822	636.482704264388	284.423999575740	1172.346316381822	568.825606215102	346.363872691552	1180.768114704982	498.768985091427	355.461572941522	1157.907183074380	424.469789033256	348.286194587945	1074.929766340046	303.897286606966	298.828920379299	1136.048233208332	197.378566538770	370.526486763721	1042.539683352778	394.316389270974	581.797800452932	921.522362897042	353.904993955625	640.944515957373	907.526028439521	246.128096653953	588.798487158115	705.018275796614	174.415759269444	559.330828832859	878.204876241132	132.029873306961	601.704532989221	769.128212233942	123.262106535183	634.211377480634	951.267544825215	33.429895202291	630.634574330626	1017.486557821130	38.115644738814	415.836615729625	1090.679479677436	36.176988572984	334.254562263245	1172.410846373556	97.811991921933	359.787325936776	1301.645104060085	48.764328407523	331.558573008305	985.736476631060	1073.087773823251	172.945249668721	1004.204464371522	813.112443097080	183.991702479282	1135.964896445630	1110.808580691755	740.087226647476	1374.557739753102	1078.154186779934	662.445356262988	
90	51.772571428571	878.160203744362	1015.279974390294	465.405905548371	1073.562204429034	1424.737624495994	267.031535348046	1175.855221433063	1356.946732188156	427.940749533721	1099.741775654870	1446.255355353069	597.172177403235	1079.325979959842	1492.098398896369	414.200713969953	1100.046691351803	943.609634460661	584.063486260591	1090.325998623782	952.893905114133	310.084563368555	1141.344972619359	739.928170821957	566.752443677421	1060.952025866834	631.384936040248	630.636319612667	1143.097900019514	571.338861719365	558.152186849397	1132.408021156714	461.245469780036	578.155914464235	1151.075387588745	758.962450052060	340.040240502545	1073.720105938707	636.657826899651	282.922843208292	1167.319288595196	568.028418611703	345.567456083263	1174.720985833280	498.108213530934	354.686648239971	1151.776381203868	424.122885222669	347.427085299076	1068.636711784387	303.650678681132	298.024885135418	1129.256870177319	197.159710521328	370.156964396356	1052.676219864894	396.755990978457	581.070218361477	929.979480165916	360.027029578632	639.294024441246	913.371273420984	252.487527014511	587.731516646019	709.445576755762	188.182674736611	556.618738143804	880.401135516824	138.435154903637	600.864307692051	770.578480853434	134.617365783388	632.427700721920	948.800239769687	35.165553990414	631.310387123094	1010.388275460264	38.080546898016	415.799040395869	1083.561322453026	36.077979857326	334.204768788454	1165.367375218036	97.615449552658	359.715748355196	1294.603526203769	48.413640193831	331.505614561557	993.244362732738	1072.954630781181	168.081535683999	1021.468840025464	813.680334537265	178.320175351346	1125.658400731457	1110.301578012650	738.055985174365	1363.610284897329	1059.198597882730	665.712969037973	
91	51.784285714286	877.223290335900	1015.981313455054	463.079624743825	1075.083705473033	1425.290698829296	265.148479154351	1175.996865711033	1357.395499012813	426.890731443275	1098.669289468845	1446.856910743338	595.559039223035	1079.657719129244	1492.715824330551	412.284551744972	1098.807109723620	944.290634564830	582.476714113176	1089.944058381318	953.570902920807	308.666554489521	1145.516282816691	743.531828078728	564.820657913609	1069.125639976339	633.260809419188	629.651550370406	1152.762617885929	574.991543070578	556.883157835259	1144.224503144863	463.732163710311	577.591511300542	1148.474460211745	758.083844805068	338.660638029100	1070.154345706429	636.849462446517	281.441880404548	1162.456253816585	567.283803647618	344.746643258150	1168.878180317813	497.468404208569	353.883796474443	1145.839369939883	423.773318880213	346.572553882377	1062.499332861563	303.431882442917	297.193304610745	1122.562522851971	196.936977963342	369.775639800245	1063.040140138352	399.513321495049	580.355715729388	938.865347841461	366.161658576011	637.655335419417	919.921046746150	258.893634706387	586.648232951083	714.989527270825	201.166532753478	553.828909412582	883.624006627284	145.069574816383	599.996060915264	773.294395500386	145.691355825337	630.608287623742	947.783485988357	37.811403123384	632.098233019041	1003.304327891340	38.069176489680	415.749224391984	1076.461353996433	35.996268071296	334.151390695042	1158.358809559542	97.423979623994	359.645256234733	1287.586874997845	48.033540165187	331.459814627191	1001.024581310741	1072.811201735774	163.253766587752	1039.301992599958	814.628377351341	172.756937187147	1115.360408419340	1109.722528975594	736.016247050484	1351.111842654337	1039.883011086596	669.324245956037	
92	51.796000000000	876.248016367728	1016.502140595674	460.906745295568	1076.402734096553	1425.724908075531	263.474586810858	1176.009490575920	1357.680387334698	425.987703660665	1097.561214444067	1447.240648395784	594.179632676231	1079.951550208075	1493.200469526659	410.613618949377	1097.570764967881	944.870635314356	580.919735875966	1089.434306783865	954.187898808849	307.232614298015	1149.416157921723	747.277725911813	562.717209139499	1077.177783471422	635.460542294327	628.734130889559	1162.121739097904	579.031078576083	555.577261695299	1155.949434781815	466.720000332823	576.970481823770	1145.960970976476	757.346846808090	337.367165735848	1066.692724454417	637.041777478569	280.000676508802	1157.773092019638	566.576123789351	343.843303638874	1163.269418803797	496.850508195796	353.035407732716	1140.112719102951	423.423202347683	345.715135587815	1056.508504342631	303.252295774167	296.352300385665	1115.968895513243	196.715546883219	369.378151758255	1073.550877915553	402.578264624441	579.689831082616	948.105265535850	372.207248596595	636.090155272032	927.170495257548	265.207955057325	585.606313218655	721.585393398816	213.057042562647	551.093988929446	887.962212885196	151.735493557612	599.154098140743	777.323503658992	156.162196857416	628.833069161707	948.421445604213	41.293602549203	632.933530138595	996.237499870575	38.082999481858	415.684984126489	1069.383492369342	35.934895896454	334.092497284162	1151.381890100932	97.247628282002	359.570509147966	1280.593248184671	47.645080313796	331.416712585645	1009.103281042860	1072.691122143879	158.507570856839	1057.640082936911	816.018484294547	167.356381058284	1105.108730770560	1109.093165282213	734.003919229103	1336.953300068317	1020.325725213354	673.318287373554	
